<svg width="25" height="25" viewBox="0 0 25 25" fill="none" xmlns="http://www.w3.org/2000/svg">
<path fill-rule="evenodd" clip-rule="evenodd" d="M12.25 0C12.7815 0.000109021 13.2911 0.202982 13.6669 0.563995L23.6874 10.1885C24.0525 10.5515 24.2545 11.0377 24.2499 11.5424C24.2454 12.0472 24.0346 12.5299 23.663 12.8868C23.2914 13.2437 22.7888 13.4462 22.2633 13.4505C21.7378 13.4549 21.2316 13.2609 20.8536 12.9103L12.25 4.6467L3.64638 12.9103C3.2684 13.2609 2.76216 13.4549 2.23669 13.4505C1.71122 13.4462 1.20857 13.2437 0.836989 12.8868C0.465412 12.5299 0.254642 12.0472 0.250076 11.5424C0.24551 11.0377 0.447513 10.5515 0.812577 10.1885L10.8331 0.563995C11.2089 0.202982 11.7185 0.000109021 12.25 0ZM12.25 11.5494C12.7815 11.5495 13.2911 11.7524 13.6669 12.1134L23.6874 21.7379C24.0525 22.1009 24.2545 22.5871 24.2499 23.0918C24.2454 23.5965 24.0346 24.0793 23.663 24.4362C23.2914 24.7931 22.7888 24.9955 22.2633 24.9999C21.7378 25.0043 21.2316 24.8103 20.8536 24.4597L12.25 16.1961L3.64638 24.4597C3.2684 24.8103 2.76216 25.0043 2.23669 24.9999C1.71122 24.9955 1.20857 24.7931 0.836989 24.4362C0.465412 24.0793 0.254642 23.5965 0.250076 23.0918C0.24551 22.5871 0.447513 22.1009 0.812577 21.7379L10.8331 12.1134C11.2089 11.7524 11.7185 11.5495 12.25 11.5494Z" fill="currentColor"/>
</svg>
