<svg width="28" height="20" viewBox="0 0 28 20" fill="none" xmlns="http://www.w3.org/2000/svg">
<path d="M6.5121 0.357158C6.43086 0.550899 6.29336 0.969629 6.19962 1.28211L6.03713 1.84459L6.01213 4.91944L5.99338 8.00055H7.98078H9.97444L10.0432 7.55682C10.2307 6.36938 11.1181 5.40067 12.2931 5.09444C12.8056 4.96319 15.1992 4.96319 15.7179 5.09444C16.8866 5.40067 17.7741 6.37563 17.9616 7.56932L18.0241 8.00055H20.0177H22.0051L21.9864 4.91944C21.9614 1.5321 21.9676 1.58835 21.5114 0.425905L21.3489 0.000924587H13.9993H6.65585L6.5121 0.357158Z" fill="currentColor"/>
<path d="M3.74357 0.457153C2.91861 0.807137 2.43739 1.12587 1.80617 1.75084C1.1187 2.43206 0.668719 3.11953 0.374982 3.91949C0.0812462 4.7382 0 5.35067 0 6.75686V8.00055H1.99991H3.99981V5.10693C3.99981 2.08208 4.03106 1.65085 4.2998 0.669643C4.44354 0.163416 4.43729 0.163416 3.74357 0.457153Z" fill="currentColor"/>
<path d="M23.6988 0.669641C23.9675 1.65085 23.9988 2.08208 23.9988 5.10693V8.00055H26.0049H28.0111L27.9861 6.51312C27.9611 5.26943 27.9361 4.95694 27.8236 4.55696C27.2986 2.61955 25.9987 1.14462 24.1675 0.413404C23.5613 0.169665 23.555 0.175915 23.6988 0.669641Z" fill="currentColor"/>
<path d="M12.5932 7.08811C12.337 7.2006 12.0745 7.51934 12.0308 7.76933C12.0058 7.88182 11.9995 8.50679 12.012 9.16926C12.0308 10.4817 12.0433 10.5317 12.462 10.8379C12.6245 10.9629 12.7182 10.9692 13.9994 10.9692C15.5056 10.9692 15.5181 10.9629 15.8368 10.5379C15.9618 10.3755 15.9681 10.2817 15.9681 9.00052C15.9681 7.71933 15.9618 7.62558 15.8368 7.46309C15.5244 7.04436 15.4931 7.03186 14.0744 7.01936C13.0932 7.00686 12.737 7.01936 12.5932 7.08811Z" fill="currentColor"/>
<path d="M0 13.6753C0 17.7126 0 17.7251 0.381232 18.4438C0.487477 18.6438 0.737465 18.9625 0.931206 19.1438C1.58118 19.7625 2.24364 20 3.32484 20H3.99981V15.0002V10.0005H1.99991H0V13.6753Z" fill="currentColor"/>
<path d="M5.99957 15.0002V20H13.9992H21.9988V15.0002V10.0005H20.0114H18.024L17.9615 10.4317C17.774 11.6254 16.8866 12.6003 15.7179 12.9066C15.1991 13.0378 12.8055 13.0378 12.293 12.9066C11.1181 12.6003 10.2306 11.6316 10.0431 10.4442L9.97439 10.0005H7.98698H5.99957V15.0002Z" fill="currentColor"/>
<path d="M23.9988 15.0002V20H24.6738C25.755 20 26.4175 19.7625 27.0674 19.1438C27.2612 18.9625 27.5112 18.6438 27.6174 18.4438C27.9987 17.7251 27.9987 17.7126 27.9987 13.6753V10.0005H25.9987H23.9988V15.0002Z" fill="currentColor"/>
</svg>
