<svg width="24" height="24" viewBox="0 0 24 24" fill="none" xmlns="http://www.w3.org/2000/svg">
<g clip-path="url(#clip0_97_590)">
<path d="M2.69231 20.5763C2.69231 21.4862 3.0489 22.3589 3.68364 23.0023C4.31838 23.6457 5.17927 24.0072 6.07692 24.0072H10.9423C10.9984 24.0072 11.0522 23.9846 11.0919 23.9444C11.1316 23.9042 11.1538 23.8496 11.1538 23.7928V13.9289C11.1538 13.872 11.1316 13.8174 11.0919 13.7772C11.0522 13.737 10.9984 13.7144 10.9423 13.7144H3.11538C3.00318 13.7144 2.89557 13.7596 2.81622 13.84C2.73688 13.9205 2.69231 14.0295 2.69231 14.1433V20.5763ZM11.1538 11.7845V5.99484H12.8462V11.7845C12.8462 11.8414 12.8684 11.8959 12.9081 11.9362C12.9478 11.9764 13.0016 11.999 13.0577 11.999H20.4615C20.7498 11.999 21.036 11.9491 21.3077 11.8515C21.8022 11.6736 22.2303 11.3449 22.5332 10.9106C22.8362 10.4763 22.9993 9.95768 23 9.42577V8.56804C23 7.88558 22.7326 7.23108 22.2565 6.74851C21.7804 6.26595 21.1348 5.99484 20.4615 5.99484H18.3176C18.2992 5.99454 18.2811 5.98937 18.2653 5.97984C18.2495 5.97031 18.2363 5.95675 18.2273 5.9405C18.2182 5.92425 18.2134 5.90588 18.2135 5.8872C18.2136 5.86852 18.2185 5.85019 18.2277 5.83402C18.7173 4.99606 18.8763 4.00145 18.6729 3.04962C18.4694 2.09779 17.9185 1.25912 17.1306 0.701762C16.3427 0.144406 15.3761 -0.0904263 14.4246 0.0443534C13.4731 0.179133 12.607 0.67356 12 1.42849C11.393 0.67356 10.5269 0.179133 9.5754 0.0443534C8.62387 -0.0904263 7.65726 0.144406 6.86937 0.701762C6.08149 1.25912 5.53058 2.09779 5.32712 3.04962C5.12366 4.00145 5.28268 4.99606 5.77231 5.83402C5.78152 5.85019 5.78641 5.86852 5.78648 5.8872C5.78656 5.90588 5.78182 5.92425 5.77274 5.9405C5.76365 5.95675 5.75054 5.97031 5.7347 5.97984C5.71885 5.98937 5.70083 5.99454 5.6824 5.99484H3.53846C2.86522 5.99484 2.21955 6.26595 1.7435 6.74851C1.26744 7.23108 1 7.88558 1 8.56804V9.42577C1.00075 9.95768 1.16379 10.4763 1.46676 10.9106C1.76974 11.3449 2.19782 11.6736 2.69231 11.8515C2.96403 11.9491 3.25019 11.999 3.53846 11.999H10.9423C10.9984 11.999 11.0522 11.9764 11.0919 11.9362C11.1316 11.8959 11.1538 11.8414 11.1538 11.7845ZM12.8462 3.85051C12.8462 3.42641 12.9702 3.01182 13.2027 2.65919C13.4351 2.30656 13.7655 2.03171 14.152 1.86941C14.5386 1.70711 14.9639 1.66465 15.3742 1.74739C15.7846 1.83013 16.1615 2.03435 16.4573 2.33424C16.7532 2.63413 16.9547 3.01622 17.0363 3.43218C17.1179 3.84814 17.076 4.27929 16.9159 4.67111C16.7558 5.06294 16.4847 5.39784 16.1368 5.63346C15.7889 5.86908 15.3799 5.99484 14.9615 5.99484H12.8462V3.85051ZM8.88721 1.71155C9.17702 1.69049 9.468 1.73017 9.74201 1.82813C10.016 1.92608 10.2672 2.08021 10.4798 2.28089C10.6925 2.48157 10.8621 2.72451 10.9781 2.99457C11.094 3.26462 11.1539 3.55599 11.1538 3.85051V5.99484H9.03846C8.49147 5.99342 7.96629 5.77727 7.57314 5.39176C7.17998 5.00625 6.94943 4.48136 6.92986 3.92724C6.91029 3.37312 7.10323 2.83285 7.46818 2.41983C7.83313 2.00681 8.34172 1.75315 8.88721 1.71208V1.71155ZM13.0577 24.0072H17.9231C18.8207 24.0072 19.6816 23.6457 20.3164 23.0023C20.9511 22.3589 21.3077 21.4862 21.3077 20.5763V14.1433C21.3077 14.0295 21.2631 13.9205 21.1838 13.84C21.1044 13.7596 20.9968 13.7144 20.8846 13.7144H13.0577C13.0016 13.7144 12.9478 13.737 12.9081 13.7772C12.8684 13.8174 12.8462 13.872 12.8462 13.9289V23.7928C12.8462 23.8496 12.8684 23.9042 12.9081 23.9444C12.9478 23.9846 13.0016 24.0072 13.0577 24.0072Z" fill="currentColor"/>
</g>
<defs>
<clipPath id="clip0_97_590">
<rect width="24" height="24" fill="currentColor"/>
</clipPath>
</defs>
</svg>
