<svg width="23" height="24" viewBox="0 0 23 24" fill="none" xmlns="http://www.w3.org/2000/svg">
<path d="M12 23C9.43333 23 7.16204 22.221 5.18611 20.6631C3.21019 19.1052 1.92685 17.1138 1.33611 14.6889C1.25463 14.3833 1.31574 14.1034 1.51944 13.8492C1.72315 13.595 1.99815 13.4471 2.34444 13.4056C2.67037 13.3648 2.96574 13.4259 3.23056 13.5889C3.49537 13.7518 3.6787 13.9963 3.78056 14.3222C4.26944 16.1556 5.27778 17.6528 6.80555 18.8139C8.33333 19.975 10.0648 20.5555 12 20.5555C14.3833 20.5555 16.4053 19.7257 18.0659 18.0659C19.7265 16.4061 20.5564 14.3841 20.5556 12C20.5547 9.61585 19.7248 7.59429 18.0659 5.93533C16.4069 4.27637 14.385 3.44607 12 3.44444C10.5944 3.44444 9.28055 3.77037 8.05833 4.42222C6.83611 5.07407 5.80741 5.97037 4.97222 7.11111H7.11111C7.45741 7.11111 7.74789 7.22844 7.98256 7.46311C8.21722 7.69778 8.33415 7.98785 8.33333 8.33333C8.33252 8.67881 8.21518 8.96929 7.98133 9.20478C7.74748 9.44026 7.45741 9.55718 7.11111 9.55555H2.22222C1.87593 9.55555 1.58585 9.43822 1.352 9.20355C1.11815 8.96889 1.00081 8.67881 1 8.33333V3.44444C1 3.09815 1.11733 2.80807 1.352 2.57422C1.58667 2.34037 1.87674 2.22304 2.22222 2.22222C2.5677 2.22141 2.85818 2.33874 3.09367 2.57422C3.32915 2.8097 3.44607 3.09978 3.44444 3.44444V5.09444C4.48333 3.79074 5.75159 2.78241 7.24922 2.06944C8.74685 1.35648 10.3304 1 12 1C13.5278 1 14.959 1.29048 16.2937 1.87144C17.6283 2.45241 18.7894 3.23626 19.777 4.223C20.7646 5.20974 21.5488 6.37085 22.1298 7.70633C22.7107 9.04181 23.0008 10.473 23 12C22.9992 13.527 22.7091 14.9582 22.1298 16.2937C21.5504 17.6291 20.7662 18.7903 19.777 19.777C18.7878 20.7637 17.6267 21.548 16.2937 22.1298C14.9606 22.7115 13.5294 23.0016 12 23ZM13.2222 11.5111L16.2778 14.5667C16.5019 14.7907 16.6139 15.0759 16.6139 15.4222C16.6139 15.7685 16.5019 16.0537 16.2778 16.2778C16.0537 16.5018 15.7685 16.6139 15.4222 16.6139C15.0759 16.6139 14.7907 16.5018 14.5667 16.2778L11.1444 12.8556C11.0222 12.7333 10.9306 12.596 10.8694 12.4437C10.8083 12.2913 10.7778 12.1332 10.7778 11.9694V7.11111C10.7778 6.76481 10.8951 6.47474 11.1298 6.24089C11.3644 6.00704 11.6545 5.8897 12 5.88889C12.3455 5.88807 12.636 6.00541 12.8714 6.24089C13.1069 6.47637 13.2239 6.76644 13.2222 7.11111V11.5111Z" fill="currentColor"/>
</svg>
