<svg width="28" height="21" viewBox="0 0 28 21" fill="none" xmlns="http://www.w3.org/2000/svg">
<path d="M9.08873 10.1111C10.4578 10.1111 11.7708 9.57847 12.7389 8.63037C13.7069 7.68227 14.2508 6.39637 14.2508 5.05556C14.2508 3.71474 13.7069 2.42884 12.7389 1.48074C11.7708 0.532637 10.4578 0 9.08873 0C7.71966 0 6.40667 0.532637 5.43859 1.48074C4.47052 2.42884 3.92666 3.71474 3.92666 5.05556C3.92666 6.39637 4.47052 7.68227 5.43859 8.63037C6.40667 9.57847 7.71966 10.1111 9.08873 10.1111ZM18.1216 18.1144C18.9634 18.452 20.0339 18.6667 21.3967 18.6667C27.75 18.6667 27.75 14 27.75 14C27.75 13.3814 27.4992 12.7882 27.0527 12.3506C26.6063 11.9131 26.0007 11.6671 25.3691 11.6667H18.0183C18.6425 12.4071 19.0174 13.3544 19.0174 14.3889V14.9427C19.014 15.0736 19.005 15.2044 18.9904 15.3347C18.8822 16.3064 18.5864 17.2495 18.1216 18.1144ZM25.3691 6.22222C25.3691 7.25362 24.9507 8.24277 24.2061 8.97208C23.4614 9.70139 22.4514 10.1111 21.3983 10.1111C20.3451 10.1111 19.3352 9.70139 18.5905 8.97208C17.8458 8.24277 17.4275 7.25362 17.4275 6.22222C17.4275 5.19082 17.8458 4.20167 18.5905 3.47236C19.3352 2.74305 20.3451 2.33333 21.3983 2.33333C22.4514 2.33333 23.4614 2.74305 24.2061 3.47236C24.9507 4.20167 25.3691 5.19082 25.3691 6.22222ZM0.75 14.7778C0.75 13.9527 1.08468 13.1613 1.68042 12.5779C2.27616 11.9944 3.08416 11.6667 3.92666 11.6667H14.2508C15.0933 11.6667 15.9013 11.9944 16.497 12.5779C17.0928 13.1613 17.4275 13.9527 17.4275 14.7778C17.4275 14.7778 17.4275 21 9.08873 21C0.75 21 0.75 14.7778 0.75 14.7778Z" fill="currentColor"/>
</svg>
