<svg width="27" height="27" viewBox="0 0 27 27" fill="none" xmlns="http://www.w3.org/2000/svg">
<path fill-rule="evenodd" clip-rule="evenodd" d="M7.5 6C7.5 4.4087 8.13214 2.88258 9.25736 1.75736C10.3826 0.632141 11.9087 0 13.5 0C15.0913 0 16.6174 0.632141 17.7426 1.75736C18.8679 2.88258 19.5 4.4087 19.5 6C19.5 7.5913 18.8679 9.11742 17.7426 10.2426C16.6174 11.3679 15.0913 12 13.5 12C11.9087 12 10.3826 11.3679 9.25736 10.2426C8.13214 9.11742 7.5 7.5913 7.5 6ZM7.5 15C5.51088 15 3.60322 15.7902 2.1967 17.1967C0.790176 18.6032 0 20.5109 0 22.5C0 23.6935 0.474106 24.8381 1.31802 25.682C2.16193 26.5259 3.30653 27 4.5 27H22.5C23.6935 27 24.8381 26.5259 25.682 25.682C26.5259 24.8381 27 23.6935 27 22.5C27 20.5109 26.2098 18.6032 24.8033 17.1967C23.3968 15.7902 21.4891 15 19.5 15H7.5Z" fill="currentColor"/>
</svg>
