<svg width="28" height="27" viewBox="0 0 28 27" fill="none" xmlns="http://www.w3.org/2000/svg">
<path d="M1.5 26.3334L7.21038 10.0488L17.9583 21.0917L1.5 26.3334Z" fill="currentColor" stroke="currentColor" stroke-width="2" stroke-linejoin="round"/>
<path d="M12.6917 11.1917L15.9833 7.90002C17.7389 6.14446 17.9583 4.60835 16.6416 3.29169M16.6416 15.1417L19.9333 11.85C22.1278 9.65557 24.3222 9.65557 26.5166 11.85" stroke="currentColor" stroke-width="2" stroke-linecap="round" stroke-linejoin="round"/>
<path d="M10.7167 3.29167C11.0659 3.29167 11.4008 3.15295 11.6477 2.90602C11.8946 2.6591 12.0333 2.3242 12.0333 1.975C12.0333 1.6258 11.8946 1.2909 11.6477 1.04398C11.4008 0.797053 11.0659 0.658333 10.7167 0.658333C10.3675 0.658333 10.0326 0.797053 9.78564 1.04398C9.53871 1.2909 9.39999 1.6258 9.39999 1.975C9.39999 2.3242 9.53871 2.6591 9.78564 2.90602C10.0326 3.15295 10.3675 3.29167 10.7167 3.29167ZM25.2 2.63333C25.5492 2.63333 25.8841 2.49461 26.131 2.24769C26.3779 2.00077 26.5167 1.66587 26.5167 1.31667C26.5167 0.967465 26.3779 0.632565 26.131 0.385643C25.8841 0.13872 25.5492 0 25.2 0C24.8508 0 24.5159 0.13872 24.269 0.385643C24.022 0.632565 23.8833 0.967465 23.8833 1.31667C23.8833 1.66587 24.022 2.00077 24.269 2.24769C24.5159 2.49461 24.8508 2.63333 25.2 2.63333ZM25.2 17.775C25.5492 17.775 25.8841 17.6363 26.131 17.3893C26.3779 17.1424 26.5167 16.8075 26.5167 16.4583C26.5167 16.1091 26.3779 15.7742 26.131 15.5273C25.8841 15.2804 25.5492 15.1417 25.2 15.1417C24.8508 15.1417 24.5159 15.2804 24.269 15.5273C24.022 15.7742 23.8833 16.1091 23.8833 16.4583C23.8833 16.8075 24.022 17.1424 24.269 17.3893C24.5159 17.6363 24.8508 17.775 25.2 17.775ZM23.225 23.7C23.5742 23.7 23.9091 23.5613 24.156 23.3143C24.4029 23.0674 24.5417 22.7325 24.5417 22.3833C24.5417 22.0341 24.4029 21.6992 24.156 21.4523C23.9091 21.2054 23.5742 21.0667 23.225 21.0667C22.8758 21.0667 22.5409 21.2054 22.294 21.4523C22.047 21.6992 21.9083 22.0341 21.9083 22.3833C21.9083 22.7325 22.047 23.0674 22.294 23.3143C22.5409 23.5613 22.8758 23.7 23.225 23.7Z" fill="currentColor"/>
</svg>
