<svg width="65" height="57" viewBox="0 0 65 57" fill="none" xmlns="http://www.w3.org/2000/svg">
<g filter="url(#filter0_d_460_5)">
<path d="M39.5488 35.3593L44.562 30.8497C45.4054 30.0921 44.9567 28.6462 43.8481 28.5512L37.2587 27.9863C37.0299 27.9668 36.8106 27.8818 36.6249 27.7407C36.4392 27.5995 36.2943 27.4076 36.206 27.1859L33.6554 20.8052C33.2264 19.7316 31.7738 19.7316 31.3448 20.8052L28.7942 27.1859C28.7059 27.4076 28.561 27.5995 28.3753 27.7407C28.1896 27.8818 27.9703 27.9668 27.7415 27.9863L21.1514 28.5512C20.0435 28.6462 19.5948 30.0921 20.4376 30.8497L23.4823 33.5887C23.7631 33.8417 24.0906 34.0315 24.4446 34.1462C24.7985 34.2609 25.1713 34.2981 25.5396 34.2555L32.3567 33.4744C32.9172 33.4104 33.1494 34.2039 32.6508 34.4792L26.5317 37.8581C26.1901 38.0462 25.8912 38.3088 25.655 38.6282C25.4188 38.9476 25.2509 39.3162 25.1626 39.7093L24.331 43.3841C24.0751 44.5155 25.2508 45.4094 26.2001 44.8052L31.8494 41.2109C32.2488 40.9563 32.7508 40.9563 33.1508 41.2109L38.7995 44.8052C39.7495 45.4094 40.9245 44.5162 40.6692 43.3841L39.1468 36.6538C39.0938 36.4202 39.1032 36.1759 39.1741 35.9476C39.245 35.7192 39.3746 35.5157 39.5488 35.3593Z" fill="#FF9D00"/>
</g>
<defs>
<filter id="filter0_d_460_5" x="0" y="0" width="65" height="65" filterUnits="userSpaceOnUse" color-interpolation-filters="sRGB">
<feFlood flood-opacity="0" result="BackgroundImageFix"/>
<feColorMatrix in="SourceAlpha" type="matrix" values="0 0 0 0 0 0 0 0 0 0 0 0 0 0 0 0 0 0 127 0" result="hardAlpha"/>
<feOffset/>
<feGaussianBlur stdDeviation="10"/>
<feComposite in2="hardAlpha" operator="out"/>
<feColorMatrix type="matrix" values="0 0 0 0 1 0 0 0 0 0.615686 0 0 0 0 0 0 0 0 1 0"/>
<feBlend mode="normal" in2="BackgroundImageFix" result="effect1_dropShadow_460_5"/>
<feBlend mode="normal" in="SourceGraphic" in2="effect1_dropShadow_460_5" result="shape"/>
</filter>
</defs>
</svg>
