<svg width="15" height="14" viewBox="0 0 15 14" fill="none" xmlns="http://www.w3.org/2000/svg">
<path d="M11.7293 8.60124L14.7372 6.07586C15.2432 5.65156 14.974 4.84188 14.3089 4.7887L10.3552 4.4723C10.2179 4.46142 10.0864 4.41383 9.97496 4.33477C9.86355 4.25571 9.77659 4.14823 9.72362 4.02411L8.19322 0.450891C7.93585 -0.150297 7.06427 -0.150297 6.8069 0.450891L5.27651 4.02411C5.22353 4.14823 5.13658 4.25571 5.02517 4.33477C4.91376 4.41383 4.7822 4.46142 4.64493 4.4723L0.690842 4.7887C0.0261041 4.84188 -0.243107 5.65156 0.262552 6.07586L2.0894 7.60966C2.25783 7.75134 2.45437 7.85762 2.66674 7.92187C2.87911 7.98612 3.10276 8.00696 3.32374 7.98309L7.41401 7.54569C7.75032 7.50985 7.88967 7.95419 7.59046 8.10834L3.919 10.0005C3.71408 10.1059 3.5347 10.253 3.39299 10.4318C3.25127 10.6106 3.15053 10.8171 3.09756 11.0372L2.59861 13.0951C2.44505 13.7287 3.15045 14.2293 3.72006 13.8909L7.10967 11.8781C7.34927 11.7355 7.65046 11.7355 7.89046 11.8781L11.2797 13.8909C11.8497 14.2293 12.5547 13.7291 12.4015 13.0951L11.4881 9.32613C11.4563 9.19533 11.4619 9.0585 11.5045 8.93063C11.547 8.80276 11.6248 8.6888 11.7293 8.60124Z" fill="currentColor"/>
</svg>
