<svg width="23" height="18" viewBox="0 0 23 18" fill="none" xmlns="http://www.w3.org/2000/svg">
<path fill-rule="evenodd" clip-rule="evenodd" d="M9.439 0.25H13.561C15.404 0.25 16.863 0.25 18.005 0.403C19.179 0.561 20.13 0.893 20.88 1.641C21.91 2.668 22.16 4.081 22.239 5.958V5.982C22.247 6.146 22.254 6.313 22.247 6.454C22.2431 6.65629 22.1921 6.8549 22.098 7.034C22.0291 7.15393 21.9382 7.25977 21.83 7.346C21.7485 7.41036 21.6637 7.47044 21.576 7.526C21.413 7.629 21.191 7.753 20.932 7.898L20.912 7.908C20.7172 8.01615 20.5549 8.17443 20.4419 8.36644C20.3288 8.55845 20.2692 8.7772 20.2692 9C20.2692 9.2228 20.3288 9.44155 20.4419 9.63356C20.5549 9.82557 20.7172 9.98385 20.912 10.092L20.932 10.102C21.192 10.247 21.412 10.371 21.576 10.474C21.661 10.528 21.75 10.588 21.83 10.654C21.904 10.715 22.015 10.818 22.098 10.966C22.218 11.18 22.241 11.396 22.248 11.546C22.254 11.686 22.247 11.854 22.24 12.018L22.239 12.042C22.159 13.918 21.909 15.332 20.88 16.359C20.13 17.107 19.18 17.439 18.005 17.597C16.863 17.75 15.404 17.75 13.561 17.75H9.43999C7.59699 17.75 6.138 17.75 4.996 17.597C3.821 17.439 2.871 17.107 2.121 16.359C1.091 15.332 0.840996 13.919 0.761996 12.042V12.018C0.752805 11.8608 0.749802 11.7034 0.752996 11.546C0.759996 11.396 0.782996 11.18 0.902996 10.966C0.971918 10.8461 1.06284 10.7402 1.171 10.654C1.25249 10.5896 1.33727 10.5296 1.425 10.474C1.588 10.371 1.81 10.247 2.069 10.102L2.089 10.092C2.28379 9.98385 2.44611 9.82557 2.55913 9.63356C2.67215 9.44155 2.73175 9.2228 2.73175 9C2.73175 8.7772 2.67215 8.55845 2.55913 8.36644C2.44611 8.17443 2.28379 8.01615 2.089 7.908L2.069 7.898C1.809 7.753 1.589 7.629 1.425 7.526C1.33652 7.47156 1.25168 7.41143 1.171 7.346C1.06284 7.25977 0.971918 7.15393 0.902996 7.034C0.808523 6.85498 0.757159 6.65637 0.752996 6.454C0.749489 6.2886 0.752826 6.12313 0.762996 5.958C0.840996 4.082 1.091 2.668 2.121 1.641C2.871 0.893 3.821 0.561 4.996 0.403C6.137 0.25 7.595 0.25 9.439 0.25ZM20.75 11.726V11.746L20.741 11.979C20.663 13.835 20.41 14.711 19.821 15.297C19.397 15.721 18.815 15.975 17.806 16.11C16.776 16.248 15.417 16.25 13.506 16.25H9.496C7.585 16.25 6.226 16.248 5.196 16.11C4.186 15.975 3.605 15.721 3.18 15.297C2.592 14.711 2.339 13.835 2.26 11.979L2.252 11.726C2.376 11.649 2.555 11.549 2.82 11.401C3.24755 11.1626 3.60369 10.8144 3.85162 10.3923C4.09955 9.97017 4.23026 9.48952 4.23026 9C4.23026 8.51048 4.09955 8.02983 3.85162 7.60773C3.60369 7.18563 3.24755 6.83739 2.82 6.599C2.62859 6.49432 2.43923 6.38597 2.252 6.274V6.254L2.261 6.021C2.339 4.165 2.592 3.289 3.181 2.703C3.605 2.279 4.186 2.025 5.196 1.89C6.226 1.752 7.585 1.75 9.496 1.75H13.506C15.417 1.75 16.776 1.752 17.806 1.89C18.816 2.025 19.397 2.279 19.822 2.703C20.409 3.289 20.663 4.165 20.741 6.021L20.75 6.254V6.274C20.626 6.351 20.447 6.451 20.182 6.599C19.7542 6.83718 19.3978 7.18534 19.1496 7.60746C18.9015 8.02959 18.7707 8.51035 18.7707 9C18.7707 9.48965 18.9015 9.97041 19.1496 10.3925C19.3978 10.8147 19.7542 11.1628 20.182 11.401C20.446 11.549 20.626 11.649 20.75 11.726ZM15.03 5.47C15.1704 5.61063 15.2493 5.80125 15.2493 6C15.2493 6.19875 15.1704 6.38937 15.03 6.53L9.02999 12.53C8.88782 12.6625 8.69977 12.7346 8.50547 12.7312C8.31117 12.7277 8.12579 12.649 7.98837 12.5116C7.85096 12.3742 7.77225 12.1888 7.76882 11.9945C7.76539 11.8002 7.83752 11.6122 7.97 11.47L13.97 5.47C14.1106 5.32955 14.3012 5.25066 14.5 5.25066C14.6987 5.25066 14.8894 5.32955 15.03 5.47Z" fill="currentColor"/>
</svg>
