<svg width="18" height="18" viewBox="0 0 18 18" fill="none" xmlns="http://www.w3.org/2000/svg">
<path d="M17.661 4.21864L9.81501 16.7126C9.71938 16.8644 9.58673 16.9894 9.42953 17.0758C9.27233 17.1622 9.09574 17.2072 8.91635 17.2066C8.73697 17.206 8.56068 17.1598 8.40406 17.0724C8.24744 16.9849 8.11563 16.859 8.02102 16.7066L0.328016 4.21264C0.112094 3.8629 -0.00153249 3.45966 1.56103e-05 3.04864C0.00922894 2.44144 0.259239 1.86277 0.695059 1.43989C1.13088 1.01701 1.71682 0.784551 2.32402 0.793637H15.686C16.963 0.792637 18 1.79864 18 3.04264C18 3.45564 17.884 3.86364 17.661 4.21864ZM2.21802 3.79864L7.94102 12.6246V2.91064H2.81602C2.22402 2.91064 1.95902 3.30264 2.21802 3.80064M10.058 12.6266L15.783 3.79864C16.048 3.30164 15.777 2.90864 15.184 2.90864H10.06L10.058 12.6266Z" fill="currentColor"/>
</svg>
